<svg version="1.2" xmlns="http://www.w3.org/2000/svg" viewBox="0 0 2000 2000" width="2000" height="2000">
	<title>escudo-svg</title>
	<style>
		tspan { white-space:pre } 
		.s0 { fill: #030303 } 
	</style>
	<g id="Capa 2">
		<g id="logocreator">
			<path id="Path 1" class="s0" d="m676.5 584c-2.2 0.3-5.3 1.3-6.8 2.3-1.8 1.1-3.1 3.1-3.8 6-0.6 2.3-0.8 6.5-0.4 9.2 0.3 2.8 1 11.3 1.6 19 0.5 7.7 1.1 15.6 1.4 17.5 0.2 1.9 1.1 8.1 1.9 13.8 0.9 5.6 2.1 18.6 2.6 28.9 0.6 10.4 1.5 26.2 2 35.3 0.6 9.1 1.3 18.8 1.6 21.5 0.3 2.8 0.7 6.4 1 8 0.2 1.6 1.3 9.5 2.4 17.5 1 8 2.4 22.1 3 31.5 0.6 9.4 1.3 19.3 1.5 22 0.3 2.8 1 12.6 1.5 22 0.6 9.4 1.2 18.6 1.5 20.5 0.2 1.9 0.9 6.6 1.4 10.5 0.6 3.9 2.6 26.6 4.5 50.5 2 23.9 4.2 50.3 5.1 58.5 0.8 8.3 1.7 18.1 2 22 0.3 3.9 0.7 9.9 1 13.5 0.3 3.6 1.1 16 2 27.5 0.8 11.5 1.7 23.9 2.1 27.5 0.3 3.6 0.7 7.8 0.9 9.5 0.2 1.7 1 8.4 1.9 15 0.8 6.6 1.7 17.6 2.1 24.5 0.3 6.9 1 17.5 1.5 23.5 0.5 6 1.4 17.8 2 26 0.6 8.3 2 22 3 30.5 1.1 8.5 2.2 17.8 2.5 20.5 0.3 2.8 0.7 7 0.9 9.5 0.3 2.5 0.7 8.8 1 14 0.4 5.2 1.3 20.3 2.1 33.5 0.8 13.2 2.3 30.1 3.4 37.5 1.1 7.4 2.4 18.9 3 25.5 0.6 6.6 1.3 15.2 1.6 19 0.2 3.8 1.1 16.5 2 28 0.8 11.5 1.7 23.3 2 26 0.3 2.8 0.8 6.8 1.1 9 0.4 2.2 1.6 5.8 2.9 8 1.2 2.2 3.7 5 5.6 6.2 1.9 1.2 21.4 7.3 43.4 13.7 22 6.3 47.2 13.5 56 16 8.8 2.5 19.4 5.5 23.5 6.7 4.1 1.1 21.5 6.1 38.5 11 17 5 33.5 9.7 36.5 10.6 3 0.9 8.9 2.6 13 3.8 4.1 1.3 12.7 3.7 19 5.5 6.3 1.7 15.3 4.3 20 5.7 4.7 1.3 14.8 4.2 22.5 6.3 7.7 2.1 18.3 5 23.5 6.4 5.3 1.5 13.5 2.9 18.5 3.3 5 0.3 11.7 0 15-0.6 3.3-0.6 21.3-5.4 40-10.7 18.7-5.3 43-12.2 54-15.5 11-3.2 22-6.3 24.5-6.8 2.5-0.6 10.6-2.9 18-5.1 7.4-2.2 35.3-10.2 62-17.9 26.7-7.6 61.5-17.6 77.5-22.1 16-4.6 30.5-9.2 32.3-10.4 1.8-1.1 4.1-3.9 5.2-6.1q1.9-4 3-16c0.6-6.6 1.8-18.5 2.6-26.5 0.8-8 2.1-19.5 2.9-25.5 0.8-6 2.1-20.2 3-31.5 0.8-11.3 2-27.9 2.5-37 0.6-9.1 1.3-19.9 1.6-24 0.3-4.1 1.1-12 1.9-17.5 0.8-5.5 2.1-17 2.9-25.5 0.9-8.5 1.8-19.1 2-23.5 0.3-4.4 1-17 1.6-28 0.6-11 1.5-24.3 2-29.5 0.5-5.2 1.6-14.7 2.4-21 0.9-6.3 1.8-13.7 2.1-16.5 0.3-2.7 1-11.7 1.5-20 0.5-8.2 1.6-24 2.4-35 0.9-11 1.8-21.6 2-23.5 0.3-1.9 1.2-10.9 2-20 0.8-9.1 2.5-28.9 3.6-44 1.2-15.1 3.2-36.3 4.6-47 1.3-10.7 3.1-31.2 3.9-45.5 0.8-14.3 2-31.6 2.5-38.5 0.6-6.9 1.8-17.2 2.6-23 0.9-5.8 2-14.5 2.5-19.5 0.5-5 1.4-14.9 1.9-22 0.6-7.1 1.5-19.5 2-27.5 0.5-8 1.2-17.9 1.5-22 0.3-4.1 0.9-11.3 1.5-16 0.5-4.7 1.4-13.5 2-19.5 0.6-6 2.4-28.3 4-49.5 2.2-28.5 2.7-39.4 2-42-0.6-1.9-1.8-4.3-2.8-5.3-0.9-1-3-2-4.7-2.3-1.7-0.2-176.3-0.6-388-0.7-211.8-0.1-386.8 0-389 0.3z"/>
			<text id="" style="transform: matrix(1,0,0,1,1191,948)" >
			</text>
			<text id="" style="transform: matrix(1,0,0,1,1130,985)" >
			</text>
		</g>
	</g>
</svg>